<svg xmlns="http://www.w3.org/2000/svg" width="1800" height="1320" viewBox="0 0 1800 1320" role="img" aria-labelledby="title description">
  <title id="title">Ways to find posts on the Bart Ehrman Blog</title>
  <desc id="description">A symmetrical comparison of Keyword Search and Browse Topics. Keyword Search combines topics and secondary keywords into search terms and results. Browse Topics moves from subject areas to categories and topics. Both paths end with posts.</desc>
  <defs>
    <filter id="shadow" x="-10%" y="-10%" width="120%" height="130%">
      <feDropShadow dx="0" dy="4" stdDeviation="7" flood-color="#392d20" flood-opacity="0.10"/>
    </filter>
    <marker id="arrow" markerWidth="9" markerHeight="9" refX="8" refY="4.5" orient="auto" markerUnits="userSpaceOnUse">
      <path d="M0,0 L9,4.5 L0,9 z" fill="#7d201a"/>
    </marker>
    <style>
      .page { fill: #f6f3ed; }
      .panel { fill: #fffefa; stroke: #d8cfbe; stroke-width: 2; filter: url(#shadow); }
      .box { stroke-width: 2; }
      .process { fill: #fffefa; stroke: #bcae91; }
      .topic { fill: #edf6fb; stroke: #3982a5; }
      .keyword { fill: #f5f0f7; stroke: #876f93; }
      .subject { fill: #fff3cf; stroke: #bb8b29; }
      .category { fill: #fff9e9; stroke: #c39a42; }
      .post { fill: #edf7eb; stroke: #559657; }
      .heading { font: 700 44px Arial, Helvetica, sans-serif; fill: #6f1d18; }
      .subheading { font: 400 24px Arial, Helvetica, sans-serif; fill: #45413c; }
      .stage { font: 700 15px Arial, Helvetica, sans-serif; letter-spacing: 1.5px; fill: #766c5f; }
      .label { font: 700 29px Arial, Helvetica, sans-serif; fill: #171512; }
      .label-small { font: 700 24px Arial, Helvetica, sans-serif; fill: #171512; }
      .count { font: 400 22px Arial, Helvetica, sans-serif; fill: #57514a; }
      .note { font: 600 21px Arial, Helvetica, sans-serif; fill: #7d201a; }
      .definition-title { font: 700 26px Arial, Helvetica, sans-serif; fill: #6f1d18; }
      .definition { font: 400 22px Arial, Helvetica, sans-serif; fill: #45413c; }
      .arrow { fill: none; stroke: #7d201a; stroke-width: 3; marker-end: url(#arrow); }
      .accent { stroke: #7d201a; stroke-width: 5; stroke-linecap: round; }
      .divider { stroke: #ddd4c4; stroke-width: 1.5; }
    </style>
  </defs>
  <rect class="page" width="100%" height="100%"/>

  <rect class="panel" x="60" y="45" width="800" height="865" rx="16"/>
  <rect class="panel" x="940" y="45" width="800" height="865" rx="16"/>

  <text class="heading" x="105" y="115">Keyword Search</text>
  <line class="accent" x1="105" y1="143" x2="205" y2="143"/>
  <text class="subheading" x="105" y="185">Combine up to four topics or secondary keywords</text>
  <text class="subheading" x="105" y="217">to find relevant posts.</text>

  <text class="heading" x="985" y="115">Browse Topics</text>
  <line class="accent" x1="985" y1="143" x2="1085" y2="143"/>
  <text class="subheading" x="985" y="185">Explore posts through one of two subject-area</text>
  <text class="subheading" x="985" y="217">structures.</text>

  <text class="stage" x="145" y="258">START WITH</text>
  <text class="stage" x="1025" y="258">START WITH</text>

  <rect class="box topic" x="145" y="275" width="315" height="120" rx="12"/>
  <rect class="box keyword" x="460" y="275" width="315" height="120" rx="12"/>
  <text class="label" x="302" y="323" text-anchor="middle">Topics</text>
  <text class="count" x="302" y="361" text-anchor="middle">271 topics</text>
  <text class="label-small" x="617" y="320" text-anchor="middle">Secondary Keywords</text>
  <text class="count" x="617" y="361" text-anchor="middle">934 keywords</text>

  <rect class="box subject" x="1025" y="275" width="315" height="120" rx="12"/>
  <rect class="box subject" x="1340" y="275" width="315" height="120" rx="12"/>
  <text class="label-small" x="1182" y="323" text-anchor="middle">Browse Topics 1</text>
  <text class="count" x="1182" y="361" text-anchor="middle">10 subject areas</text>
  <text class="label-small" x="1497" y="323" text-anchor="middle">Browse Topics 2</text>
  <text class="count" x="1497" y="361" text-anchor="middle">9 subject areas</text>

  <path class="arrow" d="M460 395 L460 529"/>
  <path class="arrow" d="M1340 395 L1340 448"/>

  <rect class="box process" x="145" y="529" width="630" height="105" rx="12"/>
  <text class="label" x="460" y="571" text-anchor="middle">Up to Four Search Terms</text>
  <text class="count" x="460" y="608" text-anchor="middle">Topics, secondary keywords, or both</text>

  <rect class="box category" x="1025" y="448" width="630" height="105" rx="12"/>
  <text class="label" x="1340" y="490" text-anchor="middle">Categories</text>
  <text class="count" x="1340" y="527" text-anchor="middle">41 categories</text>

  <path class="arrow" d="M1340 553 L1340 610"/>

  <rect class="box topic" x="1025" y="610" width="630" height="105" rx="12"/>
  <text class="label" x="1340" y="652" text-anchor="middle">Topics</text>
  <text class="count" x="1340" y="689" text-anchor="middle">271 topics</text>

  <path class="arrow" d="M460 634 L460 772"/>
  <path class="arrow" d="M1340 715 L1340 772"/>

  <rect class="box post" x="145" y="772" width="630" height="88" rx="12"/>
  <rect class="box post" x="1025" y="772" width="630" height="88" rx="12"/>
  <text class="label" x="460" y="826" text-anchor="middle">Posts (4,395)</text>
  <text class="label" x="1340" y="826" text-anchor="middle">Posts (4,395)</text>

  <text class="note" x="900" y="970" text-anchor="middle">Topic post lists and search results can be narrowed with additional search terms.</text>

  <rect class="panel" x="60" y="1015" width="1680" height="245" rx="16"/>
  <line class="divider" x1="480" y1="1050" x2="480" y2="1225"/>
  <line class="divider" x1="900" y1="1050" x2="900" y2="1225"/>
  <line class="divider" x1="1320" y1="1050" x2="1320" y2="1225"/>

  <text class="definition-title" x="90" y="1075">Subject Areas:</text>
  <text class="definition" x="90" y="1120">Broad entry points that</text>
  <text class="definition" x="90" y="1152">organize related categories.</text>

  <text class="definition-title" x="510" y="1075">Categories:</text>
  <text class="definition" x="510" y="1120">Focused groupings of</text>
  <text class="definition" x="510" y="1152">related topics.</text>

  <text class="definition-title" x="930" y="1075">Topics:</text>
  <text class="definition" x="930" y="1120">Major subjects covered</text>
  <text class="definition" x="930" y="1152">in posts and used to group</text>
  <text class="definition" x="930" y="1184">related posts.</text>

  <text class="definition-title" x="1350" y="1075">Secondary Keywords:</text>
  <text class="definition" x="1350" y="1120">Important people, texts,</text>
  <text class="definition" x="1350" y="1152">places, or supporting ideas</text>
  <text class="definition" x="1350" y="1184">discussed in posts.</text>

</svg>
